<svg><def><symbol id="foriegnKeyIcon" width="16" height="16"><path d="M11 5H8.333v1.333H11c1.1 0 2 .9 2 2s-.9 2-2 2H8.333v1.334H11A3.335 3.335 0 0011 5zm-4 5.333H4.333c-1.1 0-2-.9-2-2s.9-2 2-2H7V5H4.333a3.335 3.335 0 000 6.667H7v-1.334zM5 7.667h5.333V9H5V7.667z"/></symbol><symbol id="many" width="10" height="12"><path d="M1.622 5.2H10v1.6H1.622a4.422 4.422 0 004.35 3.621H10V12H6A6 6 0 116 0h4v1.579H5.971A4.422 4.422 0 001.622 5.2z"/></symbol><symbol id="one" width="10" height="4"><path d="M48 48h10v4H48z" transform="translate(-48 -48)"/></symbol><symbol id="primaryKeyIcon" width="16" height="16"><path d="M14.667 12.333h-4V9.667H8.88a4.663 4.663 0 01-4.213 2.666A4.672 4.672 0 010 7.667 4.672 4.672 0 014.667 3 4.67 4.67 0 018.88 5.667H16v4h-1.333v2.666zM12 11h1.333V8.333h1.334V7H7.96l-.153-.447a3.337 3.337 0 00-3.14-2.22 3.335 3.335 0 000 6.667 3.337 3.337 0 003.14-2.22l.153-.447H12V11zM4.667 9.667c-1.1 0-2-.9-2-2s.9-2 2-2 2 .9 2 2-.9 2-2 2zm0-2.667C4.3 7 4 7.3 4 7.667c0 .366.3.666.667.666.366 0 .666-.3.666-.666 0-.367-.3-.667-.666-.667z"/></symbol><symbol id="tableIcon" width="12" height="12"><path d="M9 1v10H2V1h7zm-6.148.852v2.074h2.074V1.852H2.852zm3.111 0v2.074h2.074V1.852H5.963zM2.852 4.963v2.074h2.074V4.963H2.852zm3.111 0v2.074h2.074V4.963H5.963zM2.852 8.074v2.074h2.074V8.074H2.852zm3.111 0v2.074h2.074V8.074H5.963z"/></symbol><symbol id="uniqueKeyIcon" width="16" height="16"><path d="M10.333 4h1.334v5.341a3.335 3.335 0 01-6.667 0V4h1.333v5.341c0 1.1.9 2 2 2s2-.9 2-2V4z"/></symbol></def></svg>